<svg width="71" height="20" viewBox="0 0 71 20" fill="none" xmlns="http://www.w3.org/2000/svg">
<path d="M32.4071 9.27396V17.1458H29.5811V6.72437H36.6784C38.0915 6.72437 39.2219 7.87173 39.2219 9.30516V17.1451H36.3959V10.5807C36.3959 9.87948 35.8301 9.3058 35.1397 9.3058H32.4071V9.27396Z" fill="white"/>
<path d="M23.897 14.1501C23.3946 14.66 22.6723 14.9462 21.7303 14.9788V9.24225C22.6723 9.30645 23.3946 9.59278 23.897 10.0708C24.3995 10.5808 24.6506 11.25 24.6506 12.1105C24.6821 12.9709 24.4309 13.6403 23.897 14.1501ZM18.9355 15.0104C17.9934 14.9462 17.2711 14.6597 16.7687 14.1817C16.2663 13.6718 16.015 13.0026 16.015 12.1421C16.015 11.2816 16.2663 10.6124 16.7687 10.1025C17.2712 9.59265 17.9934 9.30568 18.9355 9.27384V15.0104ZM25.844 8.38147C24.745 7.32977 23.3946 6.78806 21.7296 6.72424H18.9041C17.2712 6.78844 15.8894 7.32977 14.7904 8.38147C13.6913 9.43318 13.1575 10.6761 13.1575 12.1421C13.1575 13.6082 13.6913 14.8513 14.7904 15.9026C15.8894 16.9539 17.2711 17.4962 18.9041 17.5599V19.0896H21.7303V17.5601C23.3632 17.4959 24.745 16.9547 25.8447 15.9029C26.9444 14.8511 27.4776 13.6083 27.4776 12.1424C27.5084 10.6763 26.9431 9.43344 25.844 8.38173V8.38147Z" fill="white"/>
<path d="M46.4754 7.74433L47.2605 6.72447H47.7002V9.05104H47.1977V7.48933L46.4754 8.44538L45.7532 7.48933V9.01907H45.2507V6.69263H45.6903L46.4754 7.74433Z" fill="white"/>
<path d="M48.8934 7.36181C48.7364 7.52115 48.6735 7.68062 48.6735 7.90365C48.6735 8.12668 48.7364 8.28602 48.8934 8.44536C49.0504 8.6047 49.2073 8.66851 49.4272 8.66851C49.6471 8.66851 49.8041 8.60432 49.9611 8.44536C50.118 8.2864 50.1809 8.1268 50.1809 7.90365C50.1809 7.68049 50.118 7.52115 49.9611 7.36181C49.8041 7.20247 49.6471 7.13891 49.4271 7.13891C49.2071 7.13891 49.019 7.20311 48.8934 7.36181ZM48.5165 8.76417C48.2653 8.54114 48.1711 8.25417 48.1711 7.90391C48.1711 7.58522 48.2966 7.29838 48.5165 7.04364C48.7677 6.82061 49.0503 6.69312 49.3957 6.69312C49.7411 6.69312 50.0239 6.82061 50.275 7.04364C50.5261 7.26667 50.6205 7.55351 50.6205 7.90391C50.6205 8.22259 50.4949 8.50943 50.275 8.76417C50.0239 8.9872 49.7412 9.1147 49.3957 9.1147C49.0502 9.1147 48.7677 8.98784 48.5165 8.76417Z" fill="white"/>
<path d="M52.222 6.69263C52.3475 6.69263 52.4419 6.69263 52.5675 6.72447C52.6616 6.75631 52.7558 6.78867 52.8503 6.85197C52.9132 6.88381 52.9761 6.9475 53.0388 6.97947C53.1016 7.01144 53.1331 7.07512 53.1645 7.10697L53.1958 7.17117L52.8817 7.48985C52.8818 7.48568 52.8811 7.48154 52.8796 7.47766C52.878 7.47378 52.8757 7.47026 52.8728 7.46729C52.8699 7.46431 52.8664 7.46196 52.8625 7.46037C52.8587 7.45877 52.8545 7.45797 52.8503 7.45801C52.8249 7.42934 52.8037 7.39712 52.7876 7.36235C52.7562 7.33051 52.6934 7.29815 52.662 7.26682C52.6306 7.23549 52.5679 7.20262 52.4736 7.20262C52.4107 7.17065 52.3165 7.17065 52.2537 7.17065C52.034 7.17065 51.8769 7.23485 51.7199 7.39368C51.5629 7.55251 51.5002 7.71249 51.5002 7.93552C51.5002 8.15854 51.5629 8.31801 51.7199 8.47723C51.8769 8.63644 52.034 8.70038 52.2537 8.70038C52.3479 8.70038 52.4107 8.70038 52.505 8.66854C52.5992 8.6367 52.6306 8.60434 52.6934 8.57301C52.7408 8.54909 52.7834 8.51662 52.819 8.47723L52.9132 8.3817L52.9447 8.34986L53.2276 8.66854C53.2276 8.66854 53.1962 8.70038 53.1962 8.73274C53.1649 8.76471 53.1335 8.79694 53.0706 8.86024C53.0077 8.92354 52.9451 8.95577 52.8821 8.98774C52.8191 9.01971 52.7251 9.05194 52.5992 9.08339C52.4734 9.11485 52.3794 9.14759 52.2537 9.14759C51.9083 9.14759 51.6257 9.02009 51.3744 8.79707C51.1232 8.57404 51.0291 8.28707 51.0291 7.9368C51.0291 7.61812 51.1547 7.33128 51.3744 7.07654C51.5625 6.82013 51.8765 6.69263 52.222 6.69263Z" fill="white"/>
<path d="M54.0747 6.72437V7.74423L54.9854 6.72437H55.5506L54.7027 7.68054L55.6134 9.05093H55.0483L54.3888 8.06291L54.1061 8.38159V9.05093H53.6038V6.72437H54.0747Z" fill="white"/>
<path d="M56.3357 7.36181C56.1786 7.52115 56.1159 7.68062 56.1159 7.90365C56.1159 8.12668 56.1786 8.28602 56.3357 8.44536C56.4929 8.6047 56.6497 8.66851 56.8696 8.66851C57.0894 8.66851 57.2463 8.60432 57.4034 8.44536C57.5605 8.2864 57.6232 8.1268 57.6232 7.90365C57.6232 7.68049 57.5604 7.52115 57.4034 7.36181C57.2464 7.20247 57.0893 7.13891 56.8696 7.13891C56.6498 7.13891 56.4927 7.20311 56.3357 7.36181ZM55.9903 8.76417C55.739 8.54114 55.6448 8.25417 55.6448 7.90391C55.6448 7.58522 55.7704 7.29838 55.9903 7.04364C56.2415 6.82061 56.5241 6.69312 56.8696 6.69312C57.2151 6.69312 57.4975 6.82061 57.7488 7.04364C58 7.26667 58.0942 7.55351 58.0942 7.90391C58.0942 8.22259 57.9686 8.50943 57.7488 8.76417C57.4975 8.9872 57.2149 9.1147 56.8696 9.1147C56.5242 9.1147 56.2415 8.98784 55.9903 8.76417Z" fill="white"/>
<path d="M59.0676 8.63659H59.6015C59.6956 8.63659 59.7585 8.60475 59.8213 8.54107C59.8842 8.47738 59.9155 8.41344 59.9155 8.31791C59.9155 8.22238 59.8841 8.15857 59.8213 8.09488C59.7586 8.0312 59.6956 7.9991 59.6015 7.9991H59.0676V8.63659ZM59.5072 7.13883H59.0676V7.64883H59.5386C59.6329 7.64883 59.6956 7.61686 59.7271 7.58463C59.7586 7.5524 59.79 7.48897 59.79 7.39332C59.79 7.32912 59.7585 7.26595 59.7271 7.20226C59.6642 7.17055 59.6015 7.13883 59.5072 7.13883ZM59.6015 9.05106H58.5652V6.72437H59.5386C59.7585 6.72437 59.9155 6.78856 60.0411 6.91555C60.1667 7.04254 60.2296 7.17055 60.2296 7.32989C60.2296 7.39409 60.2296 7.45739 60.1981 7.52107C60.1666 7.58476 60.1667 7.61673 60.1353 7.6487L60.0411 7.74423C60.0097 7.77607 59.9783 7.77607 59.9783 7.80843L59.947 7.84027C59.9512 7.84022 59.9553 7.84101 59.9592 7.84261C59.9631 7.8442 59.9666 7.84657 59.9695 7.84955C59.9724 7.85254 59.9747 7.85609 59.9762 7.85999C59.9778 7.86389 59.9785 7.86806 59.9783 7.87224C59.9783 7.90408 60.0097 7.90408 60.0725 7.93644C60.104 7.96828 60.1667 8.00064 60.1981 8.03197C60.2294 8.0633 60.2609 8.12775 60.2923 8.19144C60.3237 8.25512 60.3238 8.31894 60.3238 8.41446C60.3238 8.60578 60.2609 8.76512 60.104 8.89249C60.0097 8.98776 59.8213 9.05093 59.6015 9.05093V9.05106Z" fill="white"/>
<path d="M61.9566 6.69263C62.0822 6.69263 62.1766 6.69263 62.3021 6.72447C62.3963 6.75631 62.4904 6.78867 62.5849 6.85197C62.6478 6.88381 62.7106 6.9475 62.7734 6.97947C62.8363 7.01144 62.8675 7.07512 62.899 7.10697L62.9304 7.17117L62.6163 7.48985C62.6164 7.48568 62.6157 7.48154 62.6141 7.47766C62.6126 7.47378 62.6103 7.47026 62.6074 7.46729C62.6045 7.46431 62.601 7.46196 62.5971 7.46037C62.5932 7.45877 62.5891 7.45797 62.5849 7.45801C62.5595 7.42934 62.5383 7.39712 62.5222 7.36235C62.4907 7.33051 62.4279 7.29815 62.3966 7.26682C62.3652 7.23549 62.3023 7.20262 62.2082 7.20262C62.1453 7.17065 62.0511 7.17065 61.9883 7.17065C61.7685 7.17065 61.6115 7.23485 61.4545 7.39368C61.2975 7.55251 61.2346 7.71249 61.2346 7.93552C61.2346 8.15854 61.2975 8.31801 61.4545 8.47723C61.6115 8.63644 61.7685 8.70038 61.9883 8.70038C62.0825 8.70038 62.1453 8.70038 62.2396 8.66854C62.3338 8.6367 62.3652 8.60434 62.4279 8.57301C62.4753 8.54906 62.5179 8.51659 62.5536 8.47723L62.6478 8.3817L62.6792 8.34986L62.962 8.66854C62.962 8.66854 62.9307 8.70038 62.9307 8.73274C62.8993 8.76471 62.8678 8.79694 62.8051 8.86024C62.7423 8.92354 62.6794 8.95577 62.6166 8.98774C62.5537 9.01971 62.4596 9.05194 62.3337 9.08339C62.2078 9.11485 62.1138 9.14759 61.9883 9.14759C61.6429 9.14759 61.3603 9.02009 61.109 8.79707C60.8578 8.57404 60.7637 8.28707 60.7637 7.9368C60.7637 7.61812 60.8893 7.33128 61.109 7.07654C61.2973 6.82013 61.6112 6.69263 61.9566 6.69263Z" fill="white"/>
<path d="M63.7782 6.72437V7.74423L64.6888 6.72437H65.2541L64.4062 7.68054L65.3169 9.05093H64.7517L64.0921 8.06291L63.8096 8.38159V9.05093H63.3071V6.72437H63.7782Z" fill="white"/>
<path d="M66.7927 8.09488L66.5098 7.32989L66.2269 8.09488H66.7927ZM66.9497 8.50909H66.0705L65.882 9.05093H65.3481L66.2588 6.72437H66.7927L67.7034 9.05093H67.1695L66.9497 8.50909Z" fill="white"/>
<path d="M68.3941 7.48925C68.3941 7.58491 68.4256 7.64872 68.4884 7.7124C68.5513 7.77609 68.6139 7.80793 68.7082 7.80793H69.2107V7.20305H68.7082C68.6139 7.20305 68.5512 7.23489 68.4884 7.29858C68.4255 7.33008 68.3941 7.39364 68.3941 7.48925ZM69.7131 6.72438V9.05095H69.2107V8.25411H68.8024L68.3627 9.05095H67.8289L68.3313 8.15859C68.3271 8.15866 68.323 8.15788 68.3191 8.1563C68.3152 8.15472 68.3117 8.15237 68.3088 8.14939C68.3059 8.14641 68.3036 8.14287 68.302 8.13897C68.3005 8.13508 68.2998 8.13092 68.3 8.12674C68.3 8.0949 68.2372 8.0949 68.2057 8.06255L68.0802 7.93505C68.0487 7.9032 68.0173 7.83948 67.986 7.74386C67.9545 7.64833 67.9545 7.58452 67.9545 7.48886C67.9545 7.26584 68.0173 7.1065 68.1743 6.94703C68.3313 6.78756 68.5198 6.724 68.7401 6.724L69.7131 6.72438Z" fill="white"/>
<path d="M47.0406 12.2698C47.1412 12.1679 47.1976 12.0305 47.1976 11.8874C47.1976 11.7443 47.1412 11.6069 47.0406 11.5049C46.9464 11.4093 46.7894 11.3455 46.6324 11.3455V12.3972C46.7894 12.3972 46.9464 12.3653 47.0406 12.2698ZM45.7217 11.5044C45.6211 11.6064 45.5647 11.7437 45.5647 11.8869C45.5647 12.03 45.6211 12.1674 45.7217 12.2693C45.816 12.3648 45.9729 12.4285 46.1301 12.4285V11.3769C45.9729 11.3774 45.8473 11.4093 45.7217 11.5044ZM46.6324 12.8428V13.1297H46.1301V12.8428C45.816 12.8428 45.5648 12.7473 45.3764 12.5561C45.188 12.365 45.0937 12.1419 45.0935 11.8868C45.0935 11.632 45.1878 11.4089 45.3764 11.2176C45.5649 11.0263 45.8162 10.9307 46.1301 10.9308V10.6763H46.6324V10.9313C46.9464 10.9313 47.1976 11.0269 47.3861 11.2181C47.5746 11.4093 47.6689 11.6324 47.669 11.8873C47.669 12.1423 47.5747 12.3654 47.3861 12.5566C47.1975 12.7479 46.9463 12.8434 46.6324 12.8434V12.8428Z" fill="white"/>
<path d="M48.5794 12.6204H49.804V13.0666H48.0769V10.74H49.7727V11.1862H48.5794V11.6643H49.5214V12.1105H48.5794V12.6204Z" fill="white"/>
<path d="M50.9658 11.473C50.9658 11.6325 50.9658 11.7598 50.9344 11.9192C50.903 12.0467 50.8715 12.1742 50.8401 12.2379C50.8146 12.3145 50.7831 12.3891 50.746 12.4609C50.7226 12.5088 50.6907 12.552 50.6518 12.5885L50.6204 12.6204H51.5939V11.1862H50.9973V11.473H50.9658ZM49.9609 12.6204H50.0866L50.1179 12.5885C50.1493 12.5567 50.1493 12.5243 50.2122 12.4609C50.275 12.3975 50.2749 12.3335 50.3063 12.2379C50.3377 12.1422 50.3692 12.0467 50.4005 11.9192C50.4319 11.7917 50.4319 11.6325 50.4319 11.473V10.7726H52.0021V12.6528H52.285V13.5773H51.8453V13.0993H50.4633V13.5773H49.9609V12.6204Z" fill="white"/>
<path d="M53.1955 12.6204H54.4203V13.0666H52.6931V10.74H54.3889V11.1862H53.1955V11.6643H54.1375V12.1105H53.1955V12.6204Z" fill="white"/>
<path d="M55.8331 11.2181H55.3622V11.8873H55.8331C55.9274 11.8873 56.0215 11.8555 56.0844 11.7917C56.1473 11.7279 56.1785 11.6643 56.1785 11.5686C56.1785 11.473 56.1472 11.4093 56.0844 11.3455C55.9902 11.25 55.9274 11.2181 55.8331 11.2181ZM54.8596 10.7726H55.8331C56.0529 10.7726 56.2728 10.8368 56.4298 10.9956C56.5868 11.1544 56.6496 11.3143 56.6496 11.5374C56.6496 11.7606 56.5868 11.9517 56.4298 12.0793C56.2728 12.2385 56.0844 12.3023 55.8331 12.3023H55.3622V13.0672H54.8596V10.7726Z" fill="white"/>
<path d="M58.0628 12.1105L57.78 11.3455L57.4971 12.1105H58.0628ZM58.2198 12.5247H57.3406L57.1521 13.0666H56.6184L57.529 10.74H58.0628L58.9735 13.0666H58.4402L58.2198 12.5247Z" fill="white"/>
<path d="M59.2876 13.0666V10.74H59.7901V12.6204H60.7321V10.74H61.2346V12.6204H61.5172V13.5446H61.0147V13.0666H59.2876Z" fill="white"/>
<path d="M63.8723 13.0666H63.3698V11.6005L62.2394 13.0666H61.7998V10.74H62.3023V12.206L63.4327 10.74H63.8723V13.0666Z" fill="white"/>
<path d="M64.877 11.5368C64.877 11.6325 64.9085 11.6962 64.9712 11.7599C65.034 11.8235 65.0968 11.8555 65.1911 11.8555H65.6936V11.25H65.1911C65.0968 11.25 65.034 11.2818 64.9712 11.3455C64.877 11.3455 64.877 11.4412 64.877 11.5368ZM66.1645 10.7726V13.099H65.6621V12.3023H65.2225L64.7829 13.099H64.249L64.7515 12.2067C64.7473 12.2067 64.7431 12.206 64.7393 12.2044C64.7354 12.2028 64.7319 12.2005 64.7289 12.1975C64.726 12.1945 64.7237 12.191 64.7221 12.1871C64.7206 12.1832 64.7199 12.179 64.72 12.1748C64.72 12.143 64.6573 12.143 64.6259 12.1106L64.5001 11.983C64.4688 11.9512 64.4374 11.8874 64.406 11.7918C64.3746 11.6963 64.3746 11.6326 64.3746 11.537C64.3746 11.3138 64.4374 11.1545 64.5945 10.9951C64.7516 10.8358 64.9399 10.7721 65.1602 10.7721L66.1645 10.7726Z" fill="white"/>
<path d="M47.1977 14.7875V17.1139H46.6953V15.2337H45.7218V17.1139H45.2507V14.7875H47.1977Z" fill="white"/>
<path d="M48.7364 15.2337H48.2653V15.9029H48.7364C48.8305 15.9029 48.9247 15.871 48.9875 15.8073C49.0502 15.7437 49.0818 15.6798 49.0818 15.5842C49.0818 15.4885 49.0503 15.4248 48.9875 15.3612C48.9247 15.2655 48.8305 15.2337 48.7364 15.2337ZM47.7942 14.7875H48.7676C48.9873 14.7875 49.2072 14.8517 49.3642 15.0106C49.5212 15.1696 49.584 15.3292 49.584 15.5523C49.584 15.7755 49.5213 15.9667 49.3642 16.0942C49.2072 16.2535 49.0188 16.3172 48.7676 16.3172H48.2965V17.0821H47.7942V14.7875Z" fill="white"/>
<path d="M50.5892 15.3929C50.432 15.5523 50.3693 15.7116 50.3693 15.9347C50.3693 16.1577 50.432 16.3172 50.5892 16.4765C50.7463 16.6358 50.9031 16.6996 51.123 16.6996C51.3429 16.6996 51.4998 16.6355 51.6568 16.4765C51.8138 16.3175 51.8766 16.1578 51.8766 15.9347C51.8766 15.7115 51.8138 15.5523 51.6568 15.3929C51.4998 15.2336 51.3427 15.1699 51.123 15.1699C50.9033 15.1699 50.7461 15.2654 50.5892 15.3929ZM50.2437 16.7952C49.9924 16.5722 49.8982 16.2853 49.8982 15.9349C49.8982 15.6164 50.0239 15.3294 50.2437 15.0746C50.4949 14.8515 50.7775 14.7241 51.123 14.7241C51.4685 14.7241 51.751 14.8515 52.0022 15.0746C52.2534 15.2978 52.3475 15.5845 52.3475 15.9349C52.3475 16.2537 52.2221 16.5406 52.0022 16.7952C51.751 17.0183 51.4684 17.1458 51.123 17.1458C50.7777 17.1458 50.4634 17.0502 50.2437 16.7952Z" fill="white"/>
<path d="M54.6085 16.2853C54.7092 16.1834 54.7656 16.046 54.7656 15.9029C54.7656 15.7598 54.7092 15.6224 54.6085 15.5205C54.5143 15.4248 54.3572 15.3611 54.2002 15.3611V16.4127C54.3572 16.4447 54.4829 16.3809 54.6085 16.2853ZM53.2896 15.5523C53.189 15.6542 53.1326 15.7916 53.1326 15.9347C53.1326 16.0779 53.189 16.2152 53.2896 16.3172C53.3837 16.4127 53.5408 16.4765 53.6978 16.4765V15.4248C53.5414 15.393 53.3837 15.4568 53.2896 15.5523ZM54.2002 16.8907V17.1777H53.6978V16.8907C53.3837 16.8907 53.1325 16.7952 52.9442 16.604C52.756 16.4129 52.6617 16.1898 52.6614 15.9347C52.6614 15.6798 52.7557 15.4568 52.9442 15.2655C53.1328 15.0742 53.384 14.9786 53.6978 14.9788V14.7238H54.2002V14.9788C54.5143 14.9788 54.7656 15.0743 54.9539 15.2655C55.1422 15.4566 55.2365 15.6797 55.2368 15.9347C55.2368 16.1897 55.1425 16.4128 54.9539 16.604C54.734 16.7634 54.4828 16.859 54.2002 16.8907Z" fill="white"/>
<path d="M56.7752 14.7238C56.9008 14.7238 56.9951 14.7238 57.1206 14.7556C57.2148 14.7874 57.309 14.8198 57.4034 14.883C57.4662 14.9149 57.5289 14.9788 57.5918 15.0106C57.6547 15.0424 57.6859 15.1061 57.7174 15.138L57.7488 15.2022L57.4348 15.5208C57.4349 15.5167 57.4342 15.5125 57.4326 15.5087C57.4311 15.5048 57.4288 15.5013 57.4259 15.4983C57.4229 15.4953 57.4194 15.493 57.4156 15.4914C57.4117 15.4898 57.4076 15.489 57.4034 15.489C57.3779 15.4603 57.3568 15.4281 57.3405 15.3933C57.3092 15.3615 57.2463 15.3292 57.2149 15.2977C57.1836 15.2662 57.1207 15.2335 57.0266 15.2335C56.9637 15.2017 56.8696 15.2017 56.8067 15.2017C56.5868 15.2017 56.4299 15.2658 56.2729 15.4247C56.1159 15.5835 56.053 15.7434 56.053 15.9665C56.053 16.1897 56.1159 16.3489 56.2729 16.5084C56.4299 16.6678 56.5868 16.7314 56.8067 16.7314C56.9009 16.7314 56.9637 16.7314 57.0579 16.6995C57.1522 16.6677 57.1836 16.6353 57.2463 16.6039C57.2937 16.58 57.3363 16.5476 57.3721 16.5084L57.4662 16.4126L57.4975 16.3807L57.7804 16.6995C57.7804 16.6995 57.7489 16.7314 57.7489 16.7637L57.6233 16.8911C57.5605 16.9553 57.4977 16.9869 57.4349 17.0187C57.3722 17.0506 57.2778 17.0829 57.1521 17.1143C57.0263 17.1456 56.9323 17.1785 56.8067 17.1785C56.4614 17.1785 56.1786 17.051 55.9275 16.8278C55.6764 16.6047 55.582 16.3179 55.582 15.9675C55.582 15.6489 55.7076 15.362 55.9275 15.1073C56.1157 14.8511 56.4297 14.7238 56.7752 14.7238Z" fill="white"/>
<path d="M58.6595 15.3929C58.5025 15.5523 58.4396 15.7116 58.4396 15.9347C58.4396 16.1577 58.5025 16.3172 58.6595 16.4765C58.8164 16.6358 58.9734 16.6996 59.1933 16.6996C59.4132 16.6996 59.5701 16.6355 59.7271 16.4765C59.8841 16.3175 59.947 16.1578 59.947 15.9347C59.947 15.7115 59.8841 15.5523 59.7271 15.3929C59.5701 15.2336 59.4132 15.1699 59.1933 15.1699C59.094 15.17 58.9957 15.1898 58.904 15.2281C58.8124 15.2663 58.7293 15.3224 58.6595 15.3929ZM58.2826 16.7952C58.0314 16.5722 57.9373 16.2853 57.9373 15.9349C57.9373 15.6164 58.0627 15.3294 58.2826 15.0746C58.5338 14.8515 58.8165 14.7241 59.1618 14.7241C59.5072 14.7241 59.79 14.8515 60.0411 15.0746C60.2922 15.2978 60.3866 15.5845 60.3866 15.9349C60.3866 16.2537 60.261 16.5406 60.0411 16.7952C59.79 17.0183 59.5073 17.1458 59.1618 17.1458C58.8163 17.1458 58.5338 17.0502 58.2826 16.7952Z" fill="white"/>
<path d="M63.2758 16.4765C63.4013 16.3172 63.4641 16.1579 63.4641 15.9347C63.4641 15.7116 63.4013 15.5205 63.2758 15.393C63.1502 15.2337 62.9929 15.17 62.8047 15.17C62.6165 15.17 62.4592 15.2342 62.3336 15.393C62.208 15.5518 62.1452 15.7117 62.1452 15.9347C62.1452 16.1577 62.2081 16.349 62.3336 16.4765C62.4592 16.6359 62.6165 16.6997 62.8047 16.6997C62.9929 16.6997 63.1502 16.6359 63.2758 16.4765ZM63.6218 15.0739C63.8416 15.297 63.9671 15.5838 63.9671 15.9342C63.9671 16.2846 63.8416 16.5717 63.6218 16.7945C63.4019 17.0172 63.1193 17.1451 62.8053 17.1451C62.5225 17.1451 62.2712 17.0495 62.0516 16.8581C61.8319 16.667 61.7063 16.4439 61.6749 16.1571H61.3601V17.1131H60.8574V14.7875H61.3599V15.7119H61.674C61.7367 15.4571 61.8624 15.2021 62.0507 15.0427C62.2706 14.8514 62.5218 14.7558 62.8044 14.7559C63.1187 14.7238 63.4013 14.8512 63.6218 15.0739Z" fill="white"/>
<path d="M65.5366 15.871C65.5408 15.8709 65.5449 15.8717 65.5488 15.8733C65.5527 15.8749 65.5562 15.8772 65.5591 15.8802C65.5621 15.8832 65.5644 15.8867 65.5659 15.8906C65.5675 15.8945 65.5682 15.8986 65.5681 15.9028C65.5681 15.9347 65.6308 15.9347 65.6622 15.967C65.7096 15.9909 65.7522 16.0233 65.7878 16.0627C65.8192 16.0945 65.8507 16.1582 65.8821 16.2219C65.9134 16.2856 65.9134 16.3812 65.9134 16.4451C65.9134 16.6362 65.8192 16.7956 65.6622 16.9231C65.5052 17.0506 65.2853 17.1143 65.0027 17.1143C64.9086 17.1143 64.783 17.1143 64.6888 17.0824C64.5945 17.0506 64.5003 17.0182 64.4375 16.9869C64.3748 16.9556 64.3119 16.9227 64.2492 16.8593C64.2018 16.8354 64.1592 16.803 64.1235 16.7637L64.092 16.7319L64.3749 16.4451L64.4063 16.4769L64.469 16.5411C64.5004 16.5729 64.5319 16.6053 64.5948 16.6053C64.6261 16.6371 64.6889 16.6371 64.7518 16.6695C64.8146 16.7018 64.8772 16.7015 64.9401 16.7015C65.0656 16.7015 65.1914 16.6695 65.2541 16.6058C65.3168 16.5421 65.3797 16.4783 65.3797 16.3827C65.3797 16.287 65.3483 16.2233 65.2855 16.1596C65.2226 16.0959 65.1286 16.0641 64.9715 16.0641H64.6886V15.6179H64.9715C65.0971 15.6179 65.16 15.5859 65.2227 15.5537C65.2855 15.5215 65.317 15.4582 65.317 15.3625C65.317 15.2988 65.2855 15.235 65.2227 15.1713C65.16 15.1071 65.0656 15.1071 64.9715 15.1071C64.8774 15.1071 64.8145 15.139 64.7203 15.1713C64.626 15.2037 64.5948 15.2355 64.5633 15.2669L64.5004 15.3311L64.2175 15.0125L64.2489 14.9807C64.2889 14.9585 64.3216 14.9252 64.343 14.8849C64.4059 14.853 64.4373 14.8207 64.5 14.7894C64.5707 14.7518 64.6442 14.7198 64.7199 14.6937C64.8141 14.6619 64.9084 14.6619 65.0027 14.6619C65.254 14.6619 65.4423 14.7261 65.5995 14.853C65.7566 14.98 65.8192 15.1399 65.8192 15.2992C65.8192 15.3634 65.8192 15.4267 65.7878 15.4905C65.7644 15.5384 65.7325 15.5816 65.6937 15.618L65.5995 15.7136C65.5681 15.7454 65.5366 15.7454 65.5052 15.7778L65.5366 15.871Z" fill="white"/>
<path d="M67.0126 15.3929C66.8555 15.5523 66.7928 15.7116 66.7928 15.9347C66.7928 16.1577 66.8555 16.3172 67.0126 16.4765C67.1697 16.6358 67.3266 16.6996 67.5465 16.6996C67.7663 16.6996 67.9232 16.6355 68.0803 16.4765C68.2374 16.3175 68.3 16.1578 68.3 15.9347C68.3 15.7115 68.2373 15.5523 68.0803 15.3929C67.9233 15.2336 67.7662 15.1699 67.5465 15.1699C67.4471 15.17 67.3488 15.1897 67.2572 15.228C67.1655 15.2663 67.0824 15.3224 67.0126 15.3929ZM66.6358 16.7952C66.3845 16.5722 66.2903 16.2853 66.2903 15.9349C66.2903 15.6164 66.4159 15.3294 66.6358 15.0746C66.8869 14.8515 67.1696 14.7241 67.515 14.7241C67.8603 14.7241 68.143 14.8515 68.3941 15.0746C68.6452 15.2978 68.7396 15.5845 68.7396 15.9349C68.7396 16.2537 68.614 16.5406 68.3941 16.7952C68.143 17.0183 67.8604 17.1458 67.515 17.1458C67.1695 17.1458 66.8875 17.0502 66.6358 16.7952Z" fill="white"/>
<path d="M69.713 16.6997H70.2468C70.341 16.6997 70.4037 16.6677 70.4666 16.604C70.5295 16.5404 70.5609 16.4765 70.5609 16.3809C70.5609 16.2852 70.5295 16.2216 70.4666 16.1579C70.4037 16.0942 70.341 16.0623 70.2468 16.0623H69.713V16.6997ZM70.184 15.2023H69.713V15.7122H70.184C70.2783 15.7122 70.341 15.6804 70.3724 15.648C70.4037 15.6156 70.4353 15.5523 70.4353 15.4568C70.4353 15.3926 70.4037 15.3292 70.3724 15.2655C70.3096 15.2337 70.2468 15.2023 70.184 15.2023ZM70.2783 17.1144H69.2419V14.7875H70.2154C70.4352 14.7875 70.5922 14.8517 70.7179 14.9788C70.8435 15.1059 70.9063 15.2337 70.9063 15.393C70.9063 15.4572 70.9063 15.5205 70.8748 15.5842C70.8433 15.6479 70.8435 15.6798 70.8121 15.7117C70.7807 15.7435 70.7492 15.7759 70.7179 15.8073C70.6865 15.8388 70.6551 15.8392 70.6551 15.8715L70.6236 15.9034C70.6318 15.9034 70.6397 15.9066 70.6455 15.9124C70.6513 15.9182 70.6546 15.926 70.6546 15.9342C70.6546 15.9662 70.686 15.9662 70.7487 15.9984C70.7801 16.0302 70.843 16.0626 70.8743 16.0941C70.9057 16.1255 70.9372 16.1896 70.9686 16.2534C70.9999 16.3172 70.9999 16.3808 70.9999 16.4764C70.9999 16.6676 70.9372 16.8269 70.7801 16.9546C70.6865 17.0502 70.4981 17.1139 70.2783 17.1139V17.1144Z" fill="white"/>
<path d="M8.25884 17.1138H11.0849V3.47375L5.52676 10.8674L2.3866 6.7244H0V17.1138H2.82619V10.9631L5.52676 14.5644L8.25884 10.9631V17.1138Z" fill="white"/>
<path d="M12.0271 0L11.9957 1.24302L13.346 1.40223L11.9957 2.00776L11.9643 3.25077L11.1479 2.39025L9.79761 2.99578L10.6456 1.84841L9.86035 0.987892L11.1793 1.14736L12.0271 0Z" fill="white"/>
</svg>
